# xmcd
#
# Track frame offsets:
#	150
#	14631
#	28109
#	37416
#	50324
#	62238
#	81889
#	95551
#	113400
#	126184
#	139213
#	154164
#	169542
#	185240
#	197783
#	209882
#	225327
#	237075
#	251188
#	265904
#	279764
#	294784
#	309185
#	321495
#
# Disc length: 4531 seconds
#
# Revision: 0
# Processed by: cddbd v1.5.2PL0 Copyright (c) Steve Scherf et al.
# Submitted via: audiograbber 1.83.01
#
DISCID=6211b118
DTITLE=Margo Smith - Margo Smith CD4
DYEAR=1996
DGENRE=Country
TTITLE0=Where The Heart Leads
TTITLE1=Traces Of Love
TTITLE2=Love Letters In The Sand
TTITLE3=We'd Better Love It Over
TTITLE4=Love Is A Tool
TTITLE5=Rise Up
TTITLE6=When The World Turns On Me
TTITLE7=Wishes
TTITLE8=Rex Allen Jr and Margo Smith - W
TTITLE9=Cup Of Tea
TTITLE10=The Right Choice
TTITLE11=Way Back When
TTITLE12=We Are Family
TTITLE13=Wheel Of Fortun
TTITLE14=You Could See Heaven From Our
TTITLE15=You light up my life
TTITLE16=Your Sweet Lies
TTITLE17=Better Saved Than Sorry
TTITLE18=Church Bells
TTITLE19=Daddy Never Lied
TTITLE20=Don't Give Up
TTITLE21=Don't Kill the Wounded
TTITLE22=Don't Let the Devil Dance
TTITLE23=Just The Beginning For Me
EXTD=
EXTT0=
EXTT1=
EXTT2=
EXTT3=
EXTT4=
EXTT5=
EXTT6=
EXTT7=
EXTT8=
EXTT9=
EXTT10=
EXTT11=
EXTT12=
EXTT13=
EXTT14=
EXTT15=
EXTT16=
EXTT17=
EXTT18=
EXTT19=
EXTT20=
EXTT21=
EXTT22=
EXTT23=
PLAYORDER=
